<svg version="1.2" xmlns="http://www.w3.org/2000/svg" viewBox="0 0 904 356" width="904" height="356"><defs><filter x="-50%" y="-50%" width="200%" height="200%" id="f1" ><feDropShadow dx="0" dy="0" stdDeviation="11.25" flood-color="#141415" flood-opacity=".1"/></filter><filter x="-50%" y="-50%" width="200%" height="200%" id="f2" ><feDropShadow dx="0" dy="0" stdDeviation="0.4166666666666667" flood-color="#141415" flood-opacity=".8"/></filter></defs><style>tspan{white-space:pre}.a{filter:url(#f1);fill:#fff}.b{filter:url(#f2);fill:#fff}.c{font-size: 17px;line-height: 27px;fill: #000000;font-weight: 400;font-family: "SourceSansPro-Regular", "Source Sans Pro"}.d{font-size: 17px;line-height: 85px;fill: #ffef3b;font-family: "Font Awesome"}.e{font-size: 17px;line-height: 27px;fill: #000000;font-weight: 600;font-family: "SourceSansPro-Semibold", "Source Sans Pro"}.f{font-size: 17px;line-height: 27px;fill: #000000;font-weight: 400;font-family: "SourceSansPro-It", "Source Sans Pro"}</style><path class="a" d="m30 57h534.1c0.6 0 1 0.4 1 1v269c0 0.6-0.4 1-1 1h-534.1c-0.6 0-1-0.4-1-1v-269c0-0.6 0.4-1 1-1z"/><path class="b" d="m297.2 1.9c27 0 48.9 21.9 48.9 49 0 27-21.9 48.9-48.9 48.9-27.1 0-49-21.9-49-48.9 0-27.1 21.9-49 49-49z"/><text style="opacity:.7;transform:matrix(1,0,0,1,68.332,151.127)" ><tspan x="9.7" y="12.1" class="c">“</tspan><tspan  y="12.1" class="c">This was my first time renting from car rental. The service rep </tspan><tspan x="16.3" y="39.1" class="c">help me find the best rental to suit my needs. I will definitely </tspan><tspan x="122.5" y="66.1" class="c">rent with this company again”
</tspan></text><text style="transform:matrix(.702,0,0,.73,270.538,251.425)" ><tspan x="-9.6" y="0" class="d" dx="0" ></tspan><tspan  y="0" class="d" dx="0" >
</tspan></text><text style="transform:matrix(.702,0,0,.73,283.868,251.425)" ><tspan x="-9.6" y="0" class="d" dx="0" ></tspan><tspan  y="0" class="d" dx="0" >
</tspan></text><text style="transform:matrix(.702,0,0,.73,296.497,251.425)" ><tspan x="-9.6" y="0" class="d" dx="0" ></tspan><tspan  y="0" class="d" dx="0" >
</tspan></text><text style="transform:matrix(.702,0,0,.73,309.828,251.425)" ><tspan x="-9.6" y="0" class="d" dx="0" ></tspan><tspan  y="0" class="d" dx="0" >
</tspan></text><text style="transform:matrix(.702,0,0,.73,322.457,251.425)" ><tspan x="-9.6" y="0" class="d" dx="0" ></tspan><tspan  y="0" class="d" dx="0" >
</tspan></text><text style="transform:matrix(.702,0,0,.73,846.538,251.425)" ><tspan x="-9.6" y="0" class="d" dx="0" ></tspan><tspan  y="0" class="d" dx="0" >
</tspan></text><text style="transform:matrix(.702,0,0,.73,859.868,251.425)" ><tspan x="-9.6" y="0" class="d" dx="0" ></tspan><tspan  y="0" class="d" dx="0" >
</tspan></text><text style="transform:matrix(.702,0,0,.73,872.497,251.425)" ><tspan x="-9.6" y="0" class="d" dx="0" ></tspan><tspan  y="0" class="d" dx="0" >
</tspan></text><text style="transform:matrix(.702,0,0,.73,885.828,251.425)" ><tspan x="-9.6" y="0" class="d" dx="0" ></tspan><tspan  y="0" class="d" dx="0" >
</tspan></text><text style="transform:matrix(.702,0,0,.73,898.457,251.425)" ><tspan x="-9.6" y="0" class="d" dx="0" ></tspan><tspan  y="0" class="d" dx="0" >
</tspan></text><text style="opacity:.8;transform:matrix(1,0,0,1,296,286)" ><tspan x="-72.4" y="0" class="e">Kita Say, </tspan><tspan  y="0" class="f">HK Director
</tspan></text></svg>