<svg version="1.2" xmlns="http://www.w3.org/2000/svg" viewBox="0 0 34 20" width="34" height="20"><style>.a{opacity:.6;fill:#170f1c}</style><path class="a" d="m1.5 0h31c0.8 0 1.5 0.7 1.5 1.5v1c0 0.8-0.7 1.5-1.5 1.5h-31c-0.8 0-1.5-0.7-1.5-1.5v-1c0-0.8 0.7-1.5 1.5-1.5z"/><path class="a" d="m1.5 8h31c0.8 0 1.5 0.7 1.5 1.5v1c0 0.8-0.7 1.5-1.5 1.5h-31c-0.8 0-1.5-0.7-1.5-1.5v-1c0-0.8 0.7-1.5 1.5-1.5z"/><path class="a" d="m1.5 16h31c0.8 0 1.5 0.7 1.5 1.5v1c0 0.8-0.7 1.5-1.5 1.5h-31c-0.8 0-1.5-0.7-1.5-1.5v-1c0-0.8 0.7-1.5 1.5-1.5z"/></svg>