<svg version="1.2" xmlns="http://www.w3.org/2000/svg" viewBox="0 0 461 546" width="461" height="546"><defs><filter x="-50%" y="-50%" width="200%" height="200%" id="f1" ><feDropShadow dx="0" dy="0" stdDeviation="20.416666666666668" flood-color="#141415" flood-opacity=".1"/></filter></defs><style>tspan{white-space:pre}.a{filter:url(#f1);fill:#fff3f0}.b{font-size: 16px;line-height: 46px;fill: #ff724c;font-weight: 300;font-family: "OpenSans-Light", "Open Sans"}.c{font-size: 30px;line-height: 46px;fill: #202020;font-weight: 600;font-family: "OpenSans-Semibold", "Open Sans"}.d{font-size: 25px;line-height: 46px;fill: #000000;font-weight: 400;font-family: "OpenSans", "Open Sans"}.e{fill:#817f7e}.f{fill:#ff6e47}.g{fill:#707070}.h{font-size: 16px;line-height: 25px;fill: #fff3f0;font-family: "Font Awesome"}</style><path class="a" d="m51 51h360v445h-360z"/><text style="opacity:.9;transform:matrix(1.046,0,0,1.046,229.99,444.203)" ><tspan x="-54.4" y="0" class="b">U</tspan><tspan  y="0" class="b">I/UX Designer
</tspan></text><text style="opacity:.9;transform:matrix(1,0,0,1,232,418)" ><tspan x="-72.1" y="0" class="c">A</tspan><tspan  y="0" class="c">l Rayhan
</tspan></text><text style="transform:matrix(.43,0,0,.426,224.506,237.133)" ><tspan x="-81.1" y="0" class="d">U</tspan><tspan  y="0" class="d">I/UX  Design
</tspan></text><path class="e" d="m150.5 244h148c0.8 0 1.5 0.7 1.5 1.5v1c0 0.8-0.7 1.5-1.5 1.5h-148c-0.8 0-1.5-0.7-1.5-1.5v-1c0-0.8 0.7-1.5 1.5-1.5z"/><path class="f" d="m150.5 244h120c0.8 0 1.5 0.7 1.5 1.5v1c0 0.8-0.7 1.5-1.5 1.5h-120c-0.8 0-1.5-0.7-1.5-1.5v-1c0-0.8 0.7-1.5 1.5-1.5z"/><text style="transform:matrix(.43,0,0,.426,224.506,268.133)" ><tspan x="-42.1" y="0" class="d">E</tspan><tspan  y="0" class="d">nglish
</tspan></text><path class="g" d="m150.5 275h148c0.8 0 1.5 0.7 1.5 1.5v1c0 0.8-0.7 1.5-1.5 1.5h-148c-0.8 0-1.5-0.7-1.5-1.5v-1c0-0.8 0.7-1.5 1.5-1.5z"/><path class="f" d="m150.5 275h106c0.8 0 1.5 0.7 1.5 1.5v1c0 0.8-0.7 1.5-1.5 1.5h-106c-0.8 0-1.5-0.7-1.5-1.5v-1c0-0.8 0.7-1.5 1.5-1.5z"/><text style="transform:matrix(.43,0,0,.426,224.506,303.133)" ><tspan x="-94.5" y="0" class="d">C</tspan><tspan  y="0" class="d">ommunication
</tspan></text><path class="g" d="m150.5 310h148c0.8 0 1.5 0.7 1.5 1.5v1c0 0.8-0.7 1.5-1.5 1.5h-148c-0.8 0-1.5-0.7-1.5-1.5v-1c0-0.8 0.7-1.5 1.5-1.5z"/><path class="f" d="m150.5 310h114.2c0.8 0 1.5 0.7 1.5 1.5v1c0 0.8-0.7 1.5-1.5 1.5h-114.2c-0.8 0-1.5-0.7-1.5-1.5v-1c0-0.8 0.7-1.5 1.5-1.5z"/><text style="opacity:.3;transform:matrix(1,0,0,1,228,478);paint-order:stroke fill markers;stroke:#010202;stroke-width: 2;stroke-linejoin: round;" ><tspan x="-4.8" y="0" class="h"></tspan><tspan  y="0" class="h">
</tspan></text><text style="opacity:.3;transform:matrix(1,0,0,1,257,478);paint-order:stroke fill markers;stroke:#010202;stroke-width: 2;stroke-linejoin: round;" ><tspan x="-4.8" y="0" class="h"></tspan><tspan  y="0" class="h">
</tspan></text><text style="opacity:.3;transform:matrix(1,0,0,1,201,478);paint-order:stroke fill markers;stroke:#010202;stroke-width: 2;stroke-linejoin: round;" ><tspan x="-4.8" y="0" class="h"></tspan><tspan  y="0" class="h">
</tspan></text></svg>